<svg xmlns="http://www.w3.org/2000/svg" viewBox="0 0 24 24" fill="none">
  <path d="M20 2H4C2.9 2 2 2.9 2 4V16C2 17.1 2.9 18 4 18H6L10 22L14 18H20C21.1 18 22 17.1 22 16V4C22 2.9 21.1 2 20 2Z" fill="#06B6D4"/>
  
  <!-- Speech lines -->
  <line x1="6" y1="7" x2="18" y2="7" stroke="white" stroke-width="2" stroke-linecap="round"/>
  <line x1="6" y1="10" x2="15" y2="10" stroke="white" stroke-width="2" stroke-linecap="round"/>
  <line x1="6" y1="13" x2="12" y2="13" stroke="white" stroke-width="2" stroke-linecap="round"/>
  
  <!-- Sound waves -->
  <path d="M16 5C17.5 6.5 17.5 9.5 16 11" stroke="white" stroke-width="1.5" fill="none" stroke-linecap="round"/>
  <path d="M18 3C20 5 20 11 18 13" stroke="white" stroke-width="1.5" fill="none" stroke-linecap="round"/>
</svg>