<svg xmlns="http://www.w3.org/2000/svg" viewBox="0 0 24 24" fill="none">
  <circle cx="12" cy="10" r="8" fill="#8B5CF6" opacity="0.2"/>
  <path d="M12 2C16.97 2 21 6.03 21 11C21 13.5 19.68 15.7 17.7 17.05L16 22H8L6.3 17.05C4.32 15.7 3 13.5 3 11C3 6.03 7.03 2 12 2Z" fill="#8B5CF6"/>
  
  <!-- Brain patterns -->
  <path d="M8 8C8 8 10 6 12 8C14 6 16 8 16 8" stroke="white" stroke-width="1.5" fill="none" stroke-linecap="round"/>
  <path d="M8 11C8 11 10 9 12 11C14 9 16 11 16 11" stroke="white" stroke-width="1.5" fill="none" stroke-linecap="round"/>
  <path d="M9 14C9 14 10.5 12.5 12 14C13.5 12.5 15 14 15 14" stroke="white" stroke-width="1.5" fill="none" stroke-linecap="round"/>
  
  <!-- Light bulb -->
  <circle cx="18" cy="6" r="3" fill="#F59E0B"/>
  <rect x="17" y="8.5" width="2" height="1" fill="#F59E0B"/>
</svg>